<svg xmlns="http://www.w3.org/2000/svg" xmlns:xlink="http://www.w3.org/1999/xlink" width="152" height="152" viewBox="0 0 152 152"><defs><filter id="a" x="-16" y="-27" width="190.286" height="212" filterUnits="userSpaceOnUse"><feOffset dx="3" dy="3" input="SourceAlpha"/><feGaussianBlur stdDeviation="10" result="b"/><feFlood flood-opacity="0.161"/><feComposite operator="in" in2="b"/><feComposite in="SourceGraphic"/></filter><filter id="c" x="12.559" y="3.615" width="133.809" height="168.795" filterUnits="userSpaceOnUse"><feOffset dx="3" dy="3" input="SourceAlpha"/><feGaussianBlur stdDeviation="10" result="d"/><feFlood flood-opacity="0.161"/><feComposite operator="in" in2="d"/><feComposite in="SourceGraphic"/></filter><clipPath id="f"><rect width="152" height="152"/></clipPath></defs><g id="e" clip-path="url(#f)"><g transform="matrix(1, 0, 0, 1, 0, 0)" filter="url(#a)"><path d="M-11275.824-570a17.782,17.782,0,0,1-4.594-1.192c-2.362-.839-5.206-2.028-8.22-3.44a151.173,151.173,0,0,1-22.1-12.8,94.776,94.776,0,0,1-20.929-19.324c-6.172-8.067-9.3-16.209-9.3-24.2v-87.787a3.276,3.276,0,0,1,3.127-3.254h.131l34.376,1.788a63.253,63.253,0,0,1,8.907.822A41.671,41.671,0,0,1-11283-716.1l.74.346a17.09,17.09,0,0,0,6.439,2.14,17.057,17.057,0,0,0,6.438-2.14h0l.734-.344a41.661,41.661,0,0,1,11.426-3.291,63.317,63.317,0,0,1,8.907-.822l34.372-1.788h.129a3.28,3.28,0,0,1,3.135,3.254l0,87.787c0,7.992-3.133,16.135-9.3,24.2a94.736,94.736,0,0,1-20.931,19.324,151.382,151.382,0,0,1-22.1,12.8c-3.021,1.414-5.861,2.6-8.222,3.44A17.778,17.778,0,0,1-11275.824-570Zm-51.743-139.41a2.733,2.733,0,0,0-2.608,2.715v73.243c0,15.372,13.716,28.234,25.219,36.316a126.5,126.5,0,0,0,18.44,10.681c5.674,2.656,9.519,3.866,10.69,3.866s5.014-1.216,10.691-3.865a126.136,126.136,0,0,0,18.438-10.681c11.508-8.082,25.223-20.944,25.223-36.316v-73.243a2.734,2.734,0,0,0-2.606-2.715h-.11l-28.682,1.49c-2.143,0-11.311.582-16.961,3.432l-.521.242-.091.043a14.291,14.291,0,0,1-5.384,1.791,14.348,14.348,0,0,1-5.381-1.791l-.607-.284c-5.653-2.85-14.821-3.432-16.965-3.432l-28.682-1.49Z" transform="translate(11351.97 722)" fill="#08f"/></g><g transform="matrix(1, 0, 0, 1, 0, 0)" filter="url(#c)"><path d="M-11262.3-568.091c-1.172,0-5.015-1.216-10.689-3.867a126.166,126.166,0,0,1-18.436-10.68c-2.474-1.737-4.812-3.531-6.957-5.332-.391-7.659-.57-16.416-.449-16.971a11.7,11.7,0,0,1,5.5-6.959,31,31,0,0,1,6.513-3.095,36.5,36.5,0,0,1,6.465-1.327h0c1.3-.189,2.524-.366,3.546-.594a10.085,10.085,0,0,0,4.637-2.128c.76-.912.311-9.392.3-9.477a28.353,28.353,0,0,1-2.191-4.169,53.684,53.684,0,0,1-1.612-7.284h0a1.606,1.606,0,0,1-.865-.346,3.721,3.721,0,0,1-1.27-2.422,23.516,23.516,0,0,0-.792-2.927,8.943,8.943,0,0,1-.625-3.512c.106-2.093,1.191-2.154,1.315-2.154h0a35.766,35.766,0,0,1-1.284-9.859,14.83,14.83,0,0,1,1-5.735,14.75,14.75,0,0,1,3.216-4.993,15.684,15.684,0,0,1,5.456-3.595,20.353,20.353,0,0,1,7.567-1.368,20.075,20.075,0,0,1,7.518,1.368,15.8,15.8,0,0,1,5.472,3.614,14.854,14.854,0,0,1,3.223,4.983,14.8,14.8,0,0,1,1.02,5.716,34.594,34.594,0,0,1-1.308,9.862h0c.124,0,1.215.061,1.315,2.154a8.912,8.912,0,0,1-.629,3.513v.009a23.91,23.91,0,0,0-.788,2.917,3.792,3.792,0,0,1-1.274,2.421,1.616,1.616,0,0,1-.858.347v.021a52.358,52.358,0,0,1-1.611,7.266,28.439,28.439,0,0,1-2.192,4.169c0,.086-.455,8.568.3,9.478a10.047,10.047,0,0,0,4.631,2.128c1.023.23,2.252.407,3.552.6a36.554,36.554,0,0,1,6.467,1.327,30.975,30.975,0,0,1,6.509,3.1,11.7,11.7,0,0,1,5.507,6.958c.111.522-.053,8.809-.421,16.371-2.344,2.011-4.922,4.008-7.662,5.928a126.357,126.357,0,0,1-18.439,10.68C-11257.286-569.3-11261.238-568.091-11262.3-568.091Z" transform="translate(11338.43 707.5)" fill="#08f" opacity="0.5"/></g></g></svg>